<svg xmlns:inkscape="http://www.inkscape.org/namespaces/inkscape" xmlns:sodipodi="http://sodipodi.sourceforge.net/DTD/sodipodi-0.dtd" xmlns="http://www.w3.org/2000/svg" xmlns:svg="http://www.w3.org/2000/svg" width="180mm" height="70mm" viewBox="0 0 180 70" id="svg1836" inkscape:version="1.3 (0e150ed6c4, 2023-07-21)" sodipodi:docname="ferramati-logo-int_004.svg"><defs id="defs1833"></defs><g inkscape:label="Livello 1" inkscape:groupmode="layer" id="layer1"><g id="g2003" transform="matrix(1.231385,0,0,1.231385,-33.973337,-154.05932)"><path id="path902" style="fill:#f39200;fill-opacity:1;fill-rule:nonzero;stroke:none;stroke-width:1.2127" d="m 54.124055,129.68916 c -4.639812,-0.0206 -7.740374,0.59464 -11.509461,9.28003 -3.780005,8.70725 -13.006327,30.18014 -13.085153,30.36447 h 4.879842 c 0.07883,-0.18426 8.593535,-19.86393 12.367477,-28.55784 1.399462,-3.22578 2.646713,-5.1764 3.815759,-5.96344 0.851321,-0.57239 1.73967,-0.5935 3.51022,-0.58625 l 0.520493,0.002 h 83.992958 v 16.12641 h 4.53522 V 129.69091 H 54.623232 Z m 73.673695,11.71199 -76.809086,0.024 v 4.25454 l 76.810866,-0.024 z"></path><path id="path1082" style="fill-opacity:1;fill-rule:nonzero;fill:#666666" d="m 146.67051,130.21319 v 1.78177 c 0.36502,0 0.72523,0.0103 1.0854,0.0275 0.53843,1.13509 2.05993,4.66732 3.02525,10.12206 -1.23211,0.0103 -2.58358,-0.0137 -4.07157,-0.0801 l -0.0799,1.77995 c 1.26364,0.0571 2.4662,0.0853 3.60615,0.0853 0.28013,0 0.55496,-0.003 0.82782,-0.007 0.38321,2.70552 0.6373,6.01909 0.52937,9.8609 h 1.78175 c 0.10551,-3.8382 -0.14211,-7.16566 -0.52049,-9.91243 1.46374,-0.0642 2.80258,-0.18357 4.0165,-0.3606 1.08901,2.80741 1.6203,5.69412 1.58635,8.64585 -0.005,0.43293 -0.024,0.8628 -0.0532,1.28968 -0.007,0.007 -0.005,0.33379 -0.005,0.33379 h 7.44323 c 0.004,-0.0935 0.006,-0.18735 0.009,-0.28051 1.17389,-0.42928 2.06397,-0.85561 2.70549,-1.20972 0.0168,0.34802 0.0268,0.69873 0.0268,1.05163 0,0.14679 -0.007,0.29323 -0.0107,0.43878 h 1.78532 c 0.004,-0.14541 0.005,-0.29185 0.005,-0.43878 0,-12.75282 -10.6265,-23.12905 -23.69219,-23.12905 z m 7.56934,3.09631 c 3.3968,1.22121 6.39826,3.24306 8.76667,5.8249 -0.15401,0.23651 -0.47889,0.60931 -1.14224,1.01437 -1.72447,-2.32358 -4.17306,-4.63457 -7.62443,-6.83927 z m -3.91879,0.21656 c 2.52122,2.66676 4.46208,5.43419 5.81425,8.28526 -1.02717,0.13338 -2.20433,0.23307 -3.55286,0.28773 -0.64394,-3.76303 -1.54225,-6.65329 -2.26139,-8.57302 z m 4.0396,1.99492 c 2.55881,1.75842 4.46322,3.56474 5.86753,5.38258 -0.61605,0.21829 -1.36156,0.42739 -2.26139,0.60931 -0.92287,-2.04341 -2.12543,-4.04306 -3.60614,-5.99189 z m 9.82185,5.00598 c 2.17317,2.81227 3.64821,6.16234 4.17816,9.80409 -0.42566,0.2836 -1.24383,0.75943 -2.54384,1.27724 -0.15401,-3.10328 -0.82599,-6.53222 -2.95064,-9.97995 0.593,-0.37109 1.01678,-0.74971 1.31632,-1.10138 z m -2.89912,1.88835 c 2.09191,3.33495 2.68139,6.67636 2.77478,9.8112 -1.07082,0.33241 -2.34802,0.65435 -3.85662,0.93083 0.0168,-0.32141 0.0323,-0.64193 0.0373,-0.96817 0.0363,-3.0766 -0.49444,-6.07924 -1.58103,-8.9958 0.9823,-0.21347 1.85671,-0.47246 2.62557,-0.77806 z m -12.13299,27.6003 c -0.45719,1.70143 -0.99395,3.45279 -1.61122,5.24758 -0.28862,0.0103 -0.57762,0.0206 -0.86867,0.0206 v 1.78174 c 6.64926,0 12.66154,-2.69123 16.96664,-7.01332 h -2.622 c -2.19257,1.85301 -4.7616,3.29325 -7.58357,4.18703 1.22969,-0.8683 2.61309,-1.94753 4.00406,-3.23663 0.33834,-0.31283 0.66464,-0.63025 0.98237,-0.9504 h -2.622 c -1.24059,1.11567 -2.46852,2.06518 -3.55996,2.83162 0.66699,-0.83069 1.37722,-1.77899 2.08908,-2.83162 h -2.21521 c -0.61483,0.85373 -1.21389,1.61973 -1.76931,2.29157 0.23162,-0.78459 0.45419,-1.56245 0.6555,-2.32889 z m -62.354328,1.05359 c -0.628183,0 -1.157049,0.21553 -1.586347,0.64485 -0.267995,0.26814 -0.439978,0.59206 -0.515164,0.97525 -0.0473,0.26194 -0.06926,0.77325 -0.06926,1.53485 0,0.76157 0.022,1.27112 0.06926,1.53306 0.07518,0.38319 0.247163,0.71021 0.515164,0.97704 0.429298,0.42929 0.958164,0.64482 1.586347,0.64482 0.650011,0 1.196437,-0.23926 1.637865,-0.71588 0.354111,-0.38322 0.53115,-0.91718 0.53115,-1.60236 v -0.9859 h -2.169015 v 0.58442 h 1.506408 v 0.46187 c 0,0.48268 -0.11375,0.8605 -0.339291,1.13338 -0.29711,0.35531 -0.684455,0.53114 -1.16711,0.53114 -0.430511,0 -0.787976,-0.14609 -1.072963,-0.43698 -0.185561,-0.19148 -0.307733,-0.43019 -0.365942,-0.72125 -0.0461,-0.25575 -0.06927,-0.72302 -0.06927,-1.40336 0,-0.68034 0.02303,-1.14468 0.06927,-1.3945 0.0582,-0.28978 0.180405,-0.53141 0.365942,-0.72302 0.289824,-0.29701 0.648516,-0.44586 1.072963,-0.44586 0.295908,0 0.556625,0.0605 0.783403,0.18288 0.173427,0.0994 0.383323,0.27157 0.627079,0.5152 l 0.445883,-0.44414 c -0.29711,-0.29701 -0.574923,-0.50636 -0.829591,-0.62885 -0.295908,-0.14541 -0.637495,-0.21656 -1.026774,-0.21656 z m -35.862482,0.0515 v 6.20506 h 2.414161 c 0.562696,0 1.011824,-0.14816 1.346533,-0.4441 0.33348,-0.29701 0.50095,-0.72139 0.50095,-1.27195 0,-0.73244 -0.338294,-1.22282 -1.012561,-1.47263 0.267996,-0.0983 0.488063,-0.27157 0.659052,-0.51519 0.170986,-0.24373 0.257579,-0.5254 0.257579,-0.84558 0,-0.51175 -0.169164,-0.9156 -0.506282,-1.21151 -0.335921,-0.29598 -0.777718,-0.4441 -1.323435,-0.4441 z m 5.734302,0 v 4.15684 c 0,0.61605 0.203059,1.12182 0.609313,1.5135 0.407469,0.39172 0.924414,0.588 1.552597,0.588 0.626969,0 1.146255,-0.19628 1.55615,-0.588 0.408681,-0.39168 0.612865,-0.89745 0.612865,-1.5135 V 171.1207 H 60.33621 v 4.10531 c 0,0.47053 -0.137401,0.8496 -0.413907,1.13337 -0.275283,0.28498 -0.640162,0.42634 -1.092501,0.42634 -0.453553,0 -0.816653,-0.14129 -1.090725,-0.42634 -0.272842,-0.2836 -0.410356,-0.66284 -0.410356,-1.13337 v -4.10531 z m 6.039849,0 v 6.20506 h 0.660829 v -6.20506 z m 2.456796,0 v 6.20506 h 3.835302 v -0.59155 h -3.172696 v -5.61351 z m 4.993531,0 v 6.20506 h 2.128158 c 0.662136,0 1.183595,-0.19113 1.566808,-0.57556 0.284976,-0.28394 0.467664,-0.68989 0.548915,-1.21862 0.04122,-0.26814 0.06219,-0.7273 0.06219,-1.37852 0,-0.62093 -0.02097,-1.05764 -0.06219,-1.30745 -0.08127,-0.48143 -0.263939,-0.86438 -0.548915,-1.14936 -0.383213,-0.38322 -0.904672,-0.57555 -1.566808,-0.57555 z m 5.863981,0 v 6.20506 h 0.662606 v -6.20506 z m 2.458573,0 v 6.20506 h 0.662607 v -4.97578 l 3.293493,4.97578 h 0.628856 v -6.20506 h -0.662607 v 4.958 l -3.293493,-4.958 z m 13.534587,0 v 0.59333 h 1.795966 v 5.61173 h 0.660834 v -5.61173 h 1.795963 v -0.59333 z m 5.412768,0 v 6.20506 h 0.660834 v -2.8334 h 2.947089 v 2.8334 h 0.66083 v -6.20506 h -0.66083 v 2.78011 h -2.947089 v -2.78011 z m 6.064723,0 v 6.20506 h 3.85129 v -0.59155 h -3.18869 v -2.24185 h 2.71793 v -0.59155 h -2.71793 v -2.18678 h 3.18869 v -0.59333 z m 7.39881,0 v 6.20506 h 0.6626 v -2.7357 h 2.71794 v -0.59334 h -2.71794 v -2.28269 h 3.18869 v -0.59333 z m 4.96689,0 v 4.15684 c 0,0.61605 0.20305,1.12182 0.60931,1.5135 0.40747,0.39172 0.92442,0.588 1.55259,0.588 0.62697,0 1.1457,-0.19628 1.55438,-0.588 0.40989,-0.39168 0.61642,-0.89745 0.61642,-1.5135 v -4.15684 h -0.66261 v 4.10531 c 0,0.47053 -0.13919,0.8496 -0.41568,1.13337 -0.27528,0.28498 -0.64017,0.42634 -1.09251,0.42634 -0.45354,0 -0.81608,-0.14129 -1.08895,-0.42634 -0.27284,-0.2836 -0.41035,-0.66284 -0.41035,-1.13337 v -4.10531 z m 5.40388,0 v 0.59333 h 1.79597 v 5.61173 h 0.66082 v -5.61173 h 1.79597 v -0.59333 z m 5.32395,0 v 4.15684 c 0,0.61605 0.20306,1.12182 0.60931,1.5135 0.40747,0.39172 0.92442,0.588 1.5526,0.588 0.62697,0 1.14569,-0.19628 1.55437,-0.588 0.4099,-0.39168 0.61642,-0.89745 0.61642,-1.5135 v -4.15684 h -0.6626 v 4.10531 c 0,0.47053 -0.13919,0.8496 -0.41569,1.13337 -0.27528,0.28498 -0.64016,0.42634 -1.0925,0.42634 -0.45355,0 -0.8161,-0.14129 -1.08895,-0.42634 -0.27284,-0.2836 -0.41035,-0.66284 -0.41035,-1.13337 v -4.10531 z m 6.03985,0 v 6.20506 h 0.66261 v -2.75348 h 1.49042 l 1.41226,2.75348 h 0.77452 l -1.47266,-2.81388 c 0.41232,-0.0873 0.74038,-0.27741 0.98414,-0.56844 0.24376,-0.28979 0.36772,-0.65462 0.36772,-1.09604 0,-0.52877 -0.17027,-0.9496 -0.50984,-1.26129 -0.34076,-0.31042 -0.78304,-0.46541 -1.32876,-0.46541 z m 5.71653,0 v 6.20506 h 3.85129 v -0.59155 h -3.18868 v -2.24185 h 2.71793 v -0.59155 h -2.71793 v -2.18678 h 3.18868 v -0.59333 z m -86.746413,0.59333 h 1.6201 c 0.366238,0 0.661521,0.0894 0.884662,0.27019 0.224337,0.18081 0.335749,0.44706 0.335749,0.80116 0,0.35411 -0.112512,0.62338 -0.33929,0.8065 -0.226779,0.18322 -0.520934,0.27363 -0.881107,0.27363 h -1.6201 z m 19.224477,0 h 1.350084 c 0.523889,0 0.931134,0.14987 1.222181,0.45296 0.190408,0.19767 0.312031,0.48725 0.364169,0.87047 0.02922,0.20969 0.04442,0.58079 0.04442,1.1156 0,0.55782 -0.01547,0.95325 -0.04442,1.18488 -0.0582,0.43657 -0.178618,0.75046 -0.364169,0.94327 -0.291061,0.30182 -0.698292,0.453 -1.222181,0.453 h -1.350084 z m 62.468016,0 h 1.65562 c 0.3723,0 0.67154,0.099 0.8971,0.29666 0.22677,0.19766 0.34108,0.47755 0.34108,0.84379 0,0.36625 -0.11141,0.64678 -0.33575,0.84204 -0.22314,0.19388 -0.52406,0.29117 -0.90243,0.29117 h -1.65563 z m -81.692493,2.74457 h 1.689381 c 0.384426,0 0.688169,0.10175 0.911306,0.30561 0.224338,0.20246 0.33575,0.47978 0.33575,0.82784 0,0.34926 -0.111378,0.62519 -0.33575,0.83134 -0.223134,0.20729 -0.52688,0.30904 -0.911306,0.30904 h -1.689381 z m 9.41506,-18.7253 v 12.27334 h 8.084512 v -2.13704 h -5.688114 v -2.98263 h 4.842538 v -2.13705 h -4.842538 v -2.87779 h 5.688114 v -2.13883 z m 43.970093,0 v 12.27334 h 2.39461 v -7.15366 l 2.36265,4.65422 h 1.6201 l 2.34311,-4.65422 v 7.15366 h 2.3964 V 155.7333 h -2.3964 l -3.17625,6.63672 -3.19224,-6.63672 z m -54.140131,0.002 v 12.27155 h 2.396398 v -4.98111 h 4.842538 v -2.13704 h -4.842538 v -3.01636 h 5.688117 v -2.13704 z m 20.599432,0 v 12.27155 h 2.396401 V 163.111 h 1.723132 l 2.396398,4.89585 h 2.774777 l -2.741027,-5.29196 c 0.642734,-0.2293 1.164189,-0.60433 1.566811,-1.12094 0.448699,-0.58573 0.673263,-1.28538 0.673263,-2.1015 0,-1.0684 -0.350701,-1.95483 -1.051643,-2.65578 -0.734899,-0.73489 -1.712334,-1.10137 -2.931102,-1.10137 z m 11.271422,0 v 12.27155 h 2.396398 V 163.111 h 1.723132 l 2.396398,4.89585 h 2.774777 l -2.741024,-5.29196 c 0.642734,-0.2293 1.165967,-0.60433 1.568585,-1.12094 0.447488,-0.58573 0.671489,-1.28538 0.671489,-2.1015 0,-1.0684 -0.3507,-1.95483 -1.051646,-2.65578 -0.734899,-0.73489 -1.710557,-1.10137 -2.929325,-1.10137 z m 14.392602,0 -4.464158,12.27155 h 2.499429 l 0.740771,-2.17259 h 4.361123 l 0.72301,2.17259 h 2.49943 L 98.984131,155.7353 Z m 24.974765,0 -4.46416,12.27155 h 2.49943 l 0.74078,-2.17259 h 4.36112 l 0.723,2.17259 h 2.50121 L 123.9589,155.7353 Z m 6.96359,0 v 2.13704 h 3.20645 v 10.13451 h 2.39462 v -10.13451 h 3.20645 v -2.13704 z m 10.75448,0 v 12.27155 h 2.3964 V 155.7353 Z m -65.960458,2.13704 h 2.256059 c 0.517825,0 0.936905,0.14886 1.259485,0.44586 0.321381,0.29701 0.481412,0.68511 0.481412,1.16535 0,0.48023 -0.160055,0.86823 -0.481412,1.16534 -0.322583,0.29839 -0.74166,0.44589 -1.259485,0.44589 h -2.256059 z m 11.271419,0 h 2.257839 c 0.517826,0 0.935129,0.14886 1.257709,0.44586 0.321381,0.29701 0.483188,0.68511 0.483188,1.16535 0,0.48023 -0.161807,0.86823 -0.483188,1.16534 -0.322584,0.29839 -0.739883,0.44589 -1.257709,0.44589 h -2.257839 z m 12.996331,1.48154 1.499303,4.46416 h -3.051899 z m 24.974768,0 1.49931,4.46416 h -3.05013 z"></path><path id="path1062" style="fill:#f39200;fill-opacity:1;fill-rule:nonzero;stroke:none;stroke-width:1.2127" d="m 146.6048,155.7333 v 12.3586 h 1.87413 v -12.3586 z m 5.10368,0 v 12.3586 h 1.87413 v -8.69739 l 5.71121,8.69739 h 1.7178 v -12.3586 h -1.87413 v 8.67961 l -5.71121,-8.67961 z m 11.43841,0 v 1.68405 h 3.40362 v 10.67455 h 1.87414 v -10.67455 h 3.40184 v -1.68405 z"></path></g></g></svg>